<mxfile host="app.diagrams.net" agent="Mozilla/5.0 (Windows NT 10.0; Win64; x64) AppleWebKit/537.36 (KHTML, like Gecko) Chrome/136.0.0.0 Safari/537.36" version="27.0.6">
  <diagram name="第 1 页" id="LSlhm3LMVkDSHU0hPJYF">
    <mxGraphModel dx="1489" dy="857" grid="1" gridSize="10" guides="1" tooltips="1" connect="1" arrows="1" fold="1" page="1" pageScale="1" pageWidth="827" pageHeight="1169" math="0" shadow="0">
      <root>
        <mxCell id="0" />
        <mxCell id="1" parent="0" />
        <mxCell id="PLmEwZYhoHYfsNrTxuQ4-3" value="" style="edgeStyle=orthogonalEdgeStyle;rounded=0;orthogonalLoop=1;jettySize=auto;html=1;" edge="1" parent="1" source="PLmEwZYhoHYfsNrTxuQ4-1" target="PLmEwZYhoHYfsNrTxuQ4-2">
          <mxGeometry relative="1" as="geometry" />
        </mxCell>
        <mxCell id="PLmEwZYhoHYfsNrTxuQ4-1" value="开始" style="strokeWidth=2;html=1;shape=mxgraph.flowchart.terminator;whiteSpace=wrap;" vertex="1" parent="1">
          <mxGeometry x="210" y="10" width="100" height="60" as="geometry" />
        </mxCell>
        <mxCell id="PLmEwZYhoHYfsNrTxuQ4-5" value="" style="edgeStyle=orthogonalEdgeStyle;rounded=0;orthogonalLoop=1;jettySize=auto;html=1;" edge="1" parent="1" source="PLmEwZYhoHYfsNrTxuQ4-2">
          <mxGeometry relative="1" as="geometry">
            <mxPoint x="260" y="290" as="targetPoint" />
          </mxGeometry>
        </mxCell>
        <mxCell id="PLmEwZYhoHYfsNrTxuQ4-2" value="填写用户信息（账号、密码等）" style="whiteSpace=wrap;html=1;strokeWidth=2;" vertex="1" parent="1">
          <mxGeometry x="200" y="150" width="120" height="60" as="geometry" />
        </mxCell>
        <mxCell id="PLmEwZYhoHYfsNrTxuQ4-11" value="" style="edgeStyle=orthogonalEdgeStyle;rounded=0;orthogonalLoop=1;jettySize=auto;html=1;" edge="1" parent="1" source="PLmEwZYhoHYfsNrTxuQ4-6">
          <mxGeometry relative="1" as="geometry">
            <mxPoint x="400" y="340" as="targetPoint" />
          </mxGeometry>
        </mxCell>
        <mxCell id="PLmEwZYhoHYfsNrTxuQ4-25" value="" style="edgeStyle=orthogonalEdgeStyle;rounded=0;orthogonalLoop=1;jettySize=auto;html=1;" edge="1" parent="1" source="PLmEwZYhoHYfsNrTxuQ4-6" target="PLmEwZYhoHYfsNrTxuQ4-24">
          <mxGeometry relative="1" as="geometry" />
        </mxCell>
        <mxCell id="PLmEwZYhoHYfsNrTxuQ4-6" value="是否拥有添加权限" style="strokeWidth=2;html=1;shape=mxgraph.flowchart.decision;whiteSpace=wrap;" vertex="1" parent="1">
          <mxGeometry x="200" y="290" width="120" height="100" as="geometry" />
        </mxCell>
        <mxCell id="PLmEwZYhoHYfsNrTxuQ4-12" value="N" style="text;html=1;align=center;verticalAlign=middle;resizable=0;points=[];autosize=1;strokeColor=none;fillColor=none;" vertex="1" parent="1">
          <mxGeometry x="335" y="318" width="30" height="30" as="geometry" />
        </mxCell>
        <mxCell id="PLmEwZYhoHYfsNrTxuQ4-21" value="Y" style="text;html=1;align=center;verticalAlign=middle;resizable=0;points=[];autosize=1;strokeColor=none;fillColor=none;" vertex="1" parent="1">
          <mxGeometry x="275" y="398" width="30" height="30" as="geometry" />
        </mxCell>
        <mxCell id="PLmEwZYhoHYfsNrTxuQ4-27" value="" style="edgeStyle=orthogonalEdgeStyle;rounded=0;orthogonalLoop=1;jettySize=auto;html=1;" edge="1" parent="1" source="PLmEwZYhoHYfsNrTxuQ4-24" target="PLmEwZYhoHYfsNrTxuQ4-26">
          <mxGeometry relative="1" as="geometry" />
        </mxCell>
        <mxCell id="PLmEwZYhoHYfsNrTxuQ4-24" value="查询用户信息表" style="whiteSpace=wrap;html=1;strokeWidth=2;" vertex="1" parent="1">
          <mxGeometry x="200" y="490" width="120" height="60" as="geometry" />
        </mxCell>
        <mxCell id="PLmEwZYhoHYfsNrTxuQ4-29" value="" style="edgeStyle=orthogonalEdgeStyle;rounded=0;orthogonalLoop=1;jettySize=auto;html=1;" edge="1" parent="1" source="PLmEwZYhoHYfsNrTxuQ4-26" target="PLmEwZYhoHYfsNrTxuQ4-28">
          <mxGeometry relative="1" as="geometry">
            <Array as="points">
              <mxPoint x="570" y="520" />
              <mxPoint x="570" y="520" />
            </Array>
          </mxGeometry>
        </mxCell>
        <mxCell id="PLmEwZYhoHYfsNrTxuQ4-30" value="N" style="edgeLabel;html=1;align=center;verticalAlign=middle;resizable=0;points=[];" vertex="1" connectable="0" parent="PLmEwZYhoHYfsNrTxuQ4-29">
          <mxGeometry x="0.1106" y="5" relative="1" as="geometry">
            <mxPoint as="offset" />
          </mxGeometry>
        </mxCell>
        <mxCell id="PLmEwZYhoHYfsNrTxuQ4-34" value="" style="edgeStyle=orthogonalEdgeStyle;rounded=0;orthogonalLoop=1;jettySize=auto;html=1;" edge="1" parent="1" source="PLmEwZYhoHYfsNrTxuQ4-26" target="PLmEwZYhoHYfsNrTxuQ4-33">
          <mxGeometry relative="1" as="geometry" />
        </mxCell>
        <mxCell id="PLmEwZYhoHYfsNrTxuQ4-26" value="账号是否存在" style="rhombus;whiteSpace=wrap;html=1;strokeWidth=2;" vertex="1" parent="1">
          <mxGeometry x="420" y="480" width="110" height="80" as="geometry" />
        </mxCell>
        <mxCell id="PLmEwZYhoHYfsNrTxuQ4-32" value="" style="edgeStyle=orthogonalEdgeStyle;rounded=0;orthogonalLoop=1;jettySize=auto;html=1;" edge="1" parent="1" source="PLmEwZYhoHYfsNrTxuQ4-28" target="PLmEwZYhoHYfsNrTxuQ4-31">
          <mxGeometry relative="1" as="geometry" />
        </mxCell>
        <mxCell id="PLmEwZYhoHYfsNrTxuQ4-28" value="成功添加用户" style="whiteSpace=wrap;html=1;strokeWidth=2;" vertex="1" parent="1">
          <mxGeometry x="605" y="490" width="120" height="60" as="geometry" />
        </mxCell>
        <mxCell id="PLmEwZYhoHYfsNrTxuQ4-31" value="结束" style="strokeWidth=2;html=1;shape=mxgraph.flowchart.terminator;whiteSpace=wrap;" vertex="1" parent="1">
          <mxGeometry x="790" y="490" width="100" height="60" as="geometry" />
        </mxCell>
        <mxCell id="PLmEwZYhoHYfsNrTxuQ4-33" value="添加用户失败" style="whiteSpace=wrap;html=1;strokeWidth=2;" vertex="1" parent="1">
          <mxGeometry x="415" y="650" width="120" height="60" as="geometry" />
        </mxCell>
        <mxCell id="PLmEwZYhoHYfsNrTxuQ4-35" value="Y" style="text;html=1;align=center;verticalAlign=middle;resizable=0;points=[];autosize=1;strokeColor=none;fillColor=none;" vertex="1" parent="1">
          <mxGeometry x="485" y="568" width="30" height="30" as="geometry" />
        </mxCell>
        <mxCell id="PLmEwZYhoHYfsNrTxuQ4-38" value="无权添加" style="rounded=0;whiteSpace=wrap;html=1;" vertex="1" parent="1">
          <mxGeometry x="405" y="310" width="120" height="60" as="geometry" />
        </mxCell>
      </root>
    </mxGraphModel>
  </diagram>
</mxfile>
